<svg width="800" height="400" xmlns="http://www.w3.org/2000/svg">
  <defs>
    <linearGradient id="grad5" x1="0%" y1="0%" x2="100%" y2="100%">
      <stop offset="0%" style="stop-color:#ff9900;stop-opacity:1" />
      <stop offset="100%" style="stop-color:#ff7700;stop-opacity:1" />
    </linearGradient>
  </defs>
  
  <!-- Background -->
  <rect width="800" height="400" fill="url(#grad5)"/>
  
  <!-- Cloud shapes -->
  <ellipse cx="150" cy="100" rx="60" ry="35" fill="rgba(255,255,255,0.2)"/>
  <ellipse cx="130" cy="110" rx="40" ry="25" fill="rgba(255,255,255,0.15)"/>
  <ellipse cx="170" cy="110" rx="45" ry="28" fill="rgba(255,255,255,0.15)"/>
  
  <ellipse cx="680" cy="320" rx="50" ry="30" fill="rgba(255,255,255,0.15)"/>
  <ellipse cx="665" cy="330" rx="35" ry="20" fill="rgba(255,255,255,0.12)"/>
  
  <!-- Lambda symbol (λ) -->
  <path d="M 280 120 L 320 220 L 360 120" stroke="#ffffff" stroke-width="10" fill="none" stroke-linecap="round" stroke-linejoin="round"/>
  <line x1="320" y1="220" x2="320" y2="280" stroke="#ffffff" stroke-width="10" stroke-linecap="round"/>
  
  <!-- Serverless boxes -->
  <rect x="450" y="140" width="100" height="40" fill="rgba(255,255,255,0.3)" rx="8"/>
  <rect x="450" y="200" width="100" height="40" fill="rgba(255,255,255,0.25)" rx="8"/>
  <rect x="450" y="260" width="100" height="40" fill="rgba(255,255,255,0.2)" rx="8"/>
  
  <!-- Connection lines -->
  <line x1="360" y1="200" x2="450" y2="160" stroke="rgba(255,255,255,0.5)" stroke-width="3" stroke-dasharray="5,5"/>
  <line x1="360" y1="200" x2="450" y2="220" stroke="rgba(255,255,255,0.5)" stroke-width="3" stroke-dasharray="5,5"/>
  <line x1="360" y1="200" x2="450" y2="280" stroke="rgba(255,255,255,0.5)" stroke-width="3" stroke-dasharray="5,5"/>
  
  <!-- Text -->
  <text x="400" y="365" font-family="Arial, sans-serif" font-size="42" font-weight="bold" fill="#ffffff" text-anchor="middle">AWS Lambda</text>
</svg>
