<svg width="800" height="400" xmlns="http://www.w3.org/2000/svg">
  <defs>
    <linearGradient id="grad17" x1="0%" y1="0%" x2="100%" y2="100%">
      <stop offset="0%" style="stop-color:#f97316;stop-opacity:1" />
      <stop offset="100%" style="stop-color:#c2410c;stop-opacity:1" />
    </linearGradient>
  </defs>
  
  <!-- Background -->
  <rect width="800" height="400" fill="url(#grad17)"/>
  
  <!-- S3 Bucket -->
  <path d="M 200 180 Q 200 150 280 150 L 380 150 Q 460 150 460 180 L 460 220 Q 460 250 380 250 L 280 250 Q 200 250 200 220 Z" 
        fill="rgba(255,255,255,0.25)" stroke="#ffffff" stroke-width="3"/>
  <text x="330" y="207" font-family="Arial, sans-serif" font-size="18" font-weight="bold" fill="#ffffff" text-anchor="middle">S3</text>
  
  <!-- Files in bucket -->
  <rect x="240" y="170" width="30" height="35" fill="rgba(255,255,255,0.3)" rx="3"/>
  <rect x="285" y="170" width="30" height="35" fill="rgba(255,255,255,0.3)" rx="3"/>
  <rect x="330" y="170" width="30" height="35" fill="rgba(255,255,255,0.3)" rx="3"/>
  
  <!-- Arrow to CloudFront -->
  <path d="M 460 200 L 520 200 L 505 185 M 520 200 L 505 215" stroke="#ffffff" stroke-width="4" fill="none" stroke-linecap="round"/>
  
  <!-- CloudFront (CDN nodes) -->
  <circle cx="580" cy="160" r="35" fill="rgba(255,255,255,0.3)" stroke="#ffffff" stroke-width="2"/>
  <circle cx="620" cy="200" r="35" fill="rgba(255,255,255,0.3)" stroke="#ffffff" stroke-width="2"/>
  <circle cx="580" cy="240" r="35" fill="rgba(255,255,255,0.3)" stroke="#ffffff" stroke-width="2"/>
  
  <!-- Lines connecting nodes -->
  <line x1="585" y1="190" x2="600" y2="200" stroke="rgba(255,255,255,0.5)" stroke-width="2"/>
  <line x1="585" y1="210" x2="600" y2="200" stroke="rgba(255,255,255,0.5)" stroke-width="2"/>
  
  <!-- Decorative cloud -->
  <ellipse cx="120" cy="120" rx="50" ry="30" fill="rgba(255,255,255,0.15)"/>
  <ellipse cx="105" cy="130" rx="35" ry="22" fill="rgba(255,255,255,0.12)"/>
  
  <!-- Text -->
  <text x="400" y="330" font-family="Arial, sans-serif" font-size="38" font-weight="bold" fill="#ffffff" text-anchor="middle">S3 &amp; CloudFront</text>
  <text x="400" y="365" font-family="Arial, sans-serif" font-size="26" font-weight="normal" fill="rgba(255,255,255,0.9)" text-anchor="middle">Content Delivery</text>
</svg>
