<svg width="800" height="400" xmlns="http://www.w3.org/2000/svg">
  <defs>
    <linearGradient id="grad16" x1="0%" y1="0%" x2="100%" y2="100%">
      <stop offset="0%" style="stop-color:#ec4899;stop-opacity:1" />
      <stop offset="100%" style="stop-color:#be185d;stop-opacity:1" />
    </linearGradient>
  </defs>
  
  <!-- Background -->
  <rect width="800" height="400" fill="url(#grad16)"/>
  
  <!-- WebSocket connection representation -->
  <rect x="200" y="160" width="100" height="80" fill="rgba(255,255,255,0.2)" rx="8"/>
  <text x="250" y="207" font-family="Arial, sans-serif" font-size="16" font-weight="bold" fill="#ffffff" text-anchor="middle">Client</text>
  
  <!-- Bidirectional arrows -->
  <path d="M 300 185 L 480 185 L 465 170 M 480 185 L 465 200" stroke="#ffffff" stroke-width="4" fill="none" stroke-linecap="round"/>
  <path d="M 480 215 L 300 215 L 315 200 M 300 215 L 315 230" stroke="#ffffff" stroke-width="4" fill="none" stroke-linecap="round"/>
  
  <!-- Real-time data waves -->
  <path d="M 320 185 Q 340 175 360 185 Q 380 195 400 185 Q 420 175 440 185 Q 460 195 480 185" 
        stroke="rgba(255,255,255,0.4)" stroke-width="2" fill="none"/>
  <path d="M 320 215 Q 340 225 360 215 Q 380 205 400 215 Q 420 225 440 215 Q 460 205 480 215" 
        stroke="rgba(255,255,255,0.4)" stroke-width="2" fill="none"/>
  
  <rect x="480" y="160" width="100" height="80" fill="rgba(255,255,255,0.25)" rx="8"/>
  <text x="530" y="207" font-family="Arial, sans-serif" font-size="16" font-weight="bold" fill="#ffffff" text-anchor="middle">Server</text>
  
  <!-- Subscription symbol -->
  <circle cx="650" cy="200" r="45" fill="rgba(255,255,255,0.2)" stroke="#ffffff" stroke-width="3"/>
  <circle cx="635" cy="200" r="12" fill="none" stroke="#ffffff" stroke-width="3"/>
  <circle cx="650" cy="200" r="12" fill="none" stroke="#ffffff" stroke-width="3"/>
  <circle cx="665" cy="200" r="12" fill="none" stroke="#ffffff" stroke-width="3"/>
  
  <!-- Decorative -->
  <circle cx="120" cy="120" r="35" fill="rgba(255,255,255,0.12)"/>
  <polygon points="140,300 160,280 180,300" fill="rgba(255,255,255,0.15)"/>
  
  <!-- Text -->
  <text x="400" y="320" font-family="Arial, sans-serif" font-size="36" font-weight="bold" fill="#ffffff" text-anchor="middle">Subscriptions</text>
  <text x="400" y="355" font-family="Arial, sans-serif" font-size="26" font-weight="normal" fill="rgba(255,255,255,0.9)" text-anchor="middle">Real-time GraphQL</text>
</svg>
