<svg width="800" height="400" xmlns="http://www.w3.org/2000/svg">
  <defs>
    <linearGradient id="grad15" x1="0%" y1="0%" x2="100%" y2="100%">
      <stop offset="0%" style="stop-color:#dc2626;stop-opacity:1" />
      <stop offset="100%" style="stop-color:#7f1d1d;stop-opacity:1" />
    </linearGradient>
  </defs>
  
  <!-- Background -->
  <rect width="800" height="400" fill="url(#grad15)"/>
  
  <!-- Pipeline flow -->
  <rect x="150" y="170" width="80" height="60" fill="rgba(255,255,255,0.25)" rx="8"/>
  <text x="190" y="206" font-family="Arial, sans-serif" font-size="14" font-weight="bold" fill="#ffffff" text-anchor="middle">Guard</text>
  
  <path d="M 230 200 L 290 200 L 270 185 M 290 200 L 270 215" stroke="#ffffff" stroke-width="4" fill="none" stroke-linecap="round"/>
  
  <rect x="290" y="170" width="100" height="60" fill="rgba(255,255,255,0.25)" rx="8"/>
  <text x="340" y="206" font-family="Arial, sans-serif" font-size="14" font-weight="bold" fill="#ffffff" text-anchor="middle">Interceptor</text>
  
  <path d="M 390 200 L 450 200 L 430 185 M 450 200 L 430 215" stroke="#ffffff" stroke-width="4" fill="none" stroke-linecap="round"/>
  
  <rect x="450" y="170" width="80" height="60" fill="rgba(255,255,255,0.25)" rx="8"/>
  <text x="490" y="206" font-family="Arial, sans-serif" font-size="14" font-weight="bold" fill="#ffffff" text-anchor="middle">Pipe</text>
  
  <path d="M 530 200 L 590 200 L 570 185 M 590 200 L 570 215" stroke="#ffffff" stroke-width="4" fill="none" stroke-linecap="round"/>
  
  <rect x="590" y="170" width="80" height="60" fill="rgba(74,222,128,0.4)" rx="8" stroke="#4ade80" stroke-width="2"/>
  <text x="630" y="206" font-family="Arial, sans-serif" font-size="14" font-weight="bold" fill="#ffffff" text-anchor="middle">Handler</text>
  
  <!-- Decorative -->
  <circle cx="120" cy="100" r="30" fill="rgba(255,255,255,0.12)"/>
  <rect x="680" y="280" width="45" height="45" fill="rgba(255,255,255,0.1)" rx="6" transform="rotate(20 702 302)"/>
  
  <!-- Text -->
  <text x="400" y="320" font-family="Arial, sans-serif" font-size="38" font-weight="bold" fill="#ffffff" text-anchor="middle">NestJS Pipeline</text>
  <text x="400" y="355" font-family="Arial, sans-serif" font-size="26" font-weight="normal" fill="rgba(255,255,255,0.9)" text-anchor="middle">Guards &amp; Interceptors</text>
</svg>
