<svg width="800" height="400" xmlns="http://www.w3.org/2000/svg">
  <defs>
    <linearGradient id="grad3" x1="0%" y1="0%" x2="100%" y2="100%">
      <stop offset="0%" style="stop-color:#e0234e;stop-opacity:1" />
      <stop offset="100%" style="stop-color:#c72144;stop-opacity:1" />
    </linearGradient>
  </defs>
  
  <!-- Background -->
  <rect width="800" height="400" fill="url(#grad3)"/>
  
  <!-- Decorative elements -->
  <circle cx="650" cy="100" r="50" fill="rgba(255,255,255,0.1)"/>
  <circle cx="150" cy="320" r="40" fill="rgba(255,255,255,0.12)"/>
  <rect x="680" y="280" width="60" height="60" fill="rgba(255,255,255,0.08)" rx="8"/>
  
  <!-- Nest structure -->
  <path d="M 250 120 L 350 120 L 400 200 L 350 280 L 250 280 L 200 200 Z" 
        fill="none" stroke="#ffffff" stroke-width="5" stroke-linejoin="round"/>
  <path d="M 280 160 L 320 160 L 350 200 L 320 240 L 280 240 L 250 200 Z" 
        fill="rgba(255,255,255,0.2)" stroke="#ffffff" stroke-width="4" stroke-linejoin="round"/>
  
  <!-- Module boxes -->
  <rect x="450" y="140" width="80" height="50" fill="rgba(255,255,255,0.25)" rx="6"/>
  <rect x="450" y="210" width="80" height="50" fill="rgba(255,255,255,0.25)" rx="6"/>
  <line x1="400" y1="200" x2="450" y2="165" stroke="#ffffff" stroke-width="3"/>
  <line x1="400" y1="200" x2="450" y2="235" stroke="#ffffff" stroke-width="3"/>
  
  <!-- Text -->
  <text x="400" y="360" font-family="Arial, sans-serif" font-size="42" font-weight="bold" fill="#ffffff" text-anchor="middle">NestJS</text>
</svg>
