<svg width="800" height="400" xmlns="http://www.w3.org/2000/svg">
  <defs>
    <linearGradient id="grad20" x1="0%" y1="0%" x2="100%" y2="100%">
      <stop offset="0%" style="stop-color:#1e293b;stop-opacity:1" />
      <stop offset="100%" style="stop-color:#0f172a;stop-opacity:1" />
    </linearGradient>
  </defs>
  
  <!-- Background -->
  <rect width="800" height="400" fill="url(#grad20)"/>
  
  <!-- Global network -->
  <circle cx="200" cy="140" r="40" fill="rgba(99,102,241,0.3)" stroke="#6366f1" stroke-width="3"/>
  <circle cx="400" cy="100" r="40" fill="rgba(99,102,241,0.3)" stroke="#6366f1" stroke-width="3"/>
  <circle cx="600" cy="140" r="40" fill="rgba(99,102,241,0.3)" stroke="#6366f1" stroke-width="3"/>
  <circle cx="300" cy="240" r="40" fill="rgba(99,102,241,0.3)" stroke="#6366f1" stroke-width="3"/>
  <circle cx="500" cy="240" r="40" fill="rgba(99,102,241,0.3)" stroke="#6366f1" stroke-width="3"/>
  
  <!-- Connection lines -->
  <line x1="230" y1="120" x2="370" y2="110" stroke="rgba(99,102,241,0.5)" stroke-width="2"/>
  <line x1="430" y1="110" x2="570" y2="130" stroke="rgba(99,102,241,0.5)" stroke-width="2"/>
  <line x1="220" y1="170" x2="280" y2="220" stroke="rgba(99,102,241,0.5)" stroke-width="2"/>
  <line x1="580" y1="170" x2="520" y2="220" stroke="rgba(99,102,241,0.5)" stroke-width="2"/>
  <line x1="340" y1="240" x2="460" y2="240" stroke="rgba(99,102,241,0.5)" stroke-width="2"/>
  
  <!-- Edge indicators -->
  <circle cx="200" cy="140" r="10" fill="#6366f1"/>
  <circle cx="400" cy="100" r="10" fill="#6366f1"/>
  <circle cx="600" cy="140" r="10" fill="#6366f1"/>
  <circle cx="300" cy="240" r="10" fill="#6366f1"/>
  <circle cx="500" cy="240" r="10" fill="#6366f1"/>
  
  <!-- Speed lines -->
  <line x1="650" y1="180" x2="720" y2="180" stroke="rgba(99,102,241,0.6)" stroke-width="4" stroke-linecap="round"/>
  <line x1="670" y1="200" x2="730" y2="200" stroke="rgba(99,102,241,0.5)" stroke-width="3" stroke-linecap="round"/>
  <line x1="660" y1="220" x2="720" y2="220" stroke="rgba(99,102,241,0.4)" stroke-width="3" stroke-linecap="round"/>
  
  <!-- Decorative -->
  <polygon points="100,120 120,100 140,120" fill="rgba(99,102,241,0.2)"/>
  <circle cx="120" cy="300" r="30" fill="rgba(99,102,241,0.15)"/>
  
  <!-- Text -->
  <text x="400" y="330" font-family="Arial, sans-serif" font-size="38" font-weight="bold" fill="#ffffff" text-anchor="middle">Edge Runtime</text>
  <text x="400" y="365" font-family="Arial, sans-serif" font-size="26" font-weight="normal" fill="rgba(255,255,255,0.85)" text-anchor="middle">Next.js Edge Functions</text>
</svg>
