<svg width="800" height="400" xmlns="http://www.w3.org/2000/svg">
  <defs>
    <linearGradient id="grad14" x1="0%" y1="0%" x2="100%" y2="100%">
      <stop offset="0%" style="stop-color:#000000;stop-opacity:1" />
      <stop offset="100%" style="stop-color:#2d2d2d;stop-opacity:1" />
    </linearGradient>
  </defs>
  
  <!-- Background -->
  <rect width="800" height="400" fill="url(#grad14)"/>
  
  <!-- Build time representation -->
  <rect x="200" y="130" width="140" height="100" fill="rgba(255,255,255,0.15)" rx="8"/>
  <text x="270" y="165" font-family="Arial, sans-serif" font-size="16" font-weight="bold" fill="#ffffff" text-anchor="middle">Build</text>
  <rect x="215" y="180" width="110" height="8" fill="rgba(255,255,255,0.25)" rx="2"/>
  <rect x="215" y="200" width="110" height="8" fill="rgba(255,255,255,0.2)" rx="2"/>
  
  <!-- Static pages -->
  <rect x="420" y="110" width="70" height="50" fill="rgba(74,222,128,0.3)" rx="6" stroke="#4ade80" stroke-width="2"/>
  <rect x="420" y="180" width="70" height="50" fill="rgba(74,222,128,0.3)" rx="6" stroke="#4ade80" stroke-width="2"/>
  <rect x="420" y="250" width="70" height="50" fill="rgba(74,222,128,0.3)" rx="6" stroke="#4ade80" stroke-width="2"/>
  
  <!-- Arrows -->
  <path d="M 340 180 L 420 135 M 410 135 L 420 135 L 420 145" stroke="#4ade80" stroke-width="3" fill="none" stroke-linecap="round"/>
  <path d="M 340 180 L 410 205 M 410 195 L 420 205 L 410 215" stroke="#4ade80" stroke-width="3" fill="none" stroke-linecap="round"/>
  <path d="M 340 200 L 420 275 M 410 265 L 420 275 L 410 285" stroke="#4ade80" stroke-width="3" fill="none" stroke-linecap="round"/>
  
  <!-- ISR indicator -->
  <circle cx="590" cy="200" r="50" fill="rgba(99,102,241,0.3)" stroke="#6366f1" stroke-width="3"/>
  <path d="M 590 170 Q 605 185 590 200 Q 575 215 590 230" stroke="#6366f1" stroke-width="4" fill="none" stroke-linecap="round"/>
  
  <!-- Decorative -->
  <polygon points="120,100 140,100 130,120" fill="rgba(255,255,255,0.15)"/>
  <circle cx="680" cy="280" r="35" fill="rgba(255,255,255,0.1)"/>
  
  <!-- Text -->
  <text x="400" y="355" font-family="Arial, sans-serif" font-size="38" font-weight="bold" fill="#ffffff" text-anchor="middle">SSG &amp; ISR</text>
  <text x="400" y="385" font-family="Arial, sans-serif" font-size="26" font-weight="normal" fill="rgba(255,255,255,0.85)" text-anchor="middle">Next.js Rendering</text>
</svg>
