<svg width="800" height="400" xmlns="http://www.w3.org/2000/svg">
  <defs>
    <linearGradient id="grad1" x1="0%" y1="0%" x2="100%" y2="100%">
      <stop offset="0%" style="stop-color:#667eea;stop-opacity:1" />
      <stop offset="100%" style="stop-color:#764ba2;stop-opacity:1" />
    </linearGradient>
  </defs>
  
  <!-- Background -->
  <rect width="800" height="400" fill="url(#grad1)"/>
  
  <!-- Decorative circles -->
  <circle cx="120" cy="80" r="60" fill="rgba(255,255,255,0.15)"/>
  <circle cx="680" cy="320" r="80" fill="rgba(255,255,255,0.1)"/>
  <circle cx="700" cy="100" r="40" fill="rgba(255,255,255,0.2)"/>
  
  <!-- Hook symbol -->
  <path d="M 200 150 Q 200 100 250 100 Q 300 100 300 150 L 300 250 Q 300 300 250 300 Q 220 300 220 280" 
        stroke="#ffffff" stroke-width="8" fill="none" stroke-linecap="round"/>
  <circle cx="220" cy="280" r="12" fill="#ffffff"/>
  
  <!-- React logo inspired shape -->
  <ellipse cx="450" cy="200" rx="120" ry="40" fill="none" stroke="rgba(255,255,255,0.4)" stroke-width="4"/>
  <ellipse cx="450" cy="200" rx="120" ry="40" fill="none" stroke="rgba(255,255,255,0.4)" stroke-width="4" transform="rotate(60 450 200)"/>
  <ellipse cx="450" cy="200" rx="120" ry="40" fill="none" stroke="rgba(255,255,255,0.4)" stroke-width="4" transform="rotate(120 450 200)"/>
  <circle cx="450" cy="200" r="15" fill="#ffffff"/>
  
  <!-- Text -->
  <text x="400" y="360" font-family="Arial, sans-serif" font-size="42" font-weight="bold" fill="#ffffff" text-anchor="middle">React Hooks</text>
</svg>
