<svg width="800" height="400" xmlns="http://www.w3.org/2000/svg">
  <defs>
    <linearGradient id="grad8" x1="0%" y1="0%" x2="100%" y2="100%">
      <stop offset="0%" style="stop-color:#1a1a1a;stop-opacity:1" />
      <stop offset="100%" style="stop-color:#4a4a4a;stop-opacity:1" />
    </linearGradient>
  </defs>
  
  <!-- Background -->
  <rect width="800" height="400" fill="url(#grad8)"/>
  
  <!-- Server -->
  <rect x="200" y="140" width="120" height="140" fill="rgba(255,255,255,0.15)" rx="8"/>
  <rect x="210" y="160" width="100" height="15" fill="rgba(255,255,255,0.25)" rx="3"/>
  <rect x="210" y="185" width="100" height="15" fill="rgba(255,255,255,0.2)" rx="3"/>
  <rect x="210" y="210" width="100" height="15" fill="rgba(255,255,255,0.2)" rx="3"/>
  <circle cx="225" cy="250" r="5" fill="#4ade80"/>
  <circle cx="245" cy="250" r="5" fill="#4ade80"/>
  <circle cx="265" cy="250" r="5" fill="rgba(255,255,255,0.3)"/>
  
  <!-- Action arrows -->
  <path d="M 340 200 L 450 200 L 430 180 M 450 200 L 430 220" 
        stroke="#4ade80" stroke-width="5" fill="none" stroke-linecap="round" stroke-linejoin="round"/>
  
  <!-- Client -->
  <rect x="480" y="160" width="100" height="80" fill="rgba(255,255,255,0.2)" rx="8"/>
  <rect x="490" y="175" width="80" height="8" fill="rgba(255,255,255,0.3)" rx="2"/>
  <rect x="490" y="193" width="60" height="8" fill="rgba(255,255,255,0.25)" rx="2"/>
  <rect x="490" y="211" width="70" height="8" fill="rgba(255,255,255,0.25)" rx="2"/>
  
  <!-- Decorative elements -->
  <circle cx="650" cy="120" r="35" fill="rgba(74,222,128,0.15)"/>
  <circle cx="150" cy="300" r="30" fill="rgba(255,255,255,0.1)"/>
  
  <!-- Text -->
  <text x="400" y="340" font-family="Arial, sans-serif" font-size="40" font-weight="bold" fill="#ffffff" text-anchor="middle">Server Actions</text>
  <text x="400" y="375" font-family="Arial, sans-serif" font-size="26" font-weight="normal" fill="rgba(255,255,255,0.85)" text-anchor="middle">Next.js 14+</text>
</svg>
